<svg width="16" height="16" viewBox="0 0 16 16" fill="none" xmlns="http://www.w3.org/2000/svg">
<g clip-path="url(#clip0_170_388)">
<path d="M8.6667 1.36733V0.666667C8.6667 0.489856 8.59646 0.320286 8.47144 0.195262C8.34642 0.0702379 8.17685 0 8.00004 0C7.82323 0 7.65366 0.0702379 7.52863 0.195262C7.40361 0.320286 7.33337 0.489856 7.33337 0.666667V1.36733C5.99121 1.48766 4.70832 1.97614 3.62603 2.77895C2.54374 3.58176 1.70405 4.66774 1.19949 5.91725C0.694931 7.16676 0.545074 8.53131 0.766432 9.86054C0.98779 11.1898 1.57177 12.4321 2.45404 13.4507C2.10562 13.623 1.81446 13.8925 1.61563 14.2265C1.4168 14.5605 1.31878 14.9449 1.33337 15.3333C1.33337 15.5101 1.40361 15.6797 1.52863 15.8047C1.65366 15.9298 1.82322 16 2.00004 16C2.17685 16 2.34642 15.9298 2.47144 15.8047C2.59646 15.6797 2.6667 15.5101 2.6667 15.3333C2.66116 15.1278 2.73493 14.9281 2.87271 14.7756C3.0105 14.623 3.20171 14.5293 3.4067 14.514C3.45256 14.5053 3.49729 14.4914 3.54004 14.4727C4.81706 15.4631 6.38726 16.0007 8.00337 16.0007C9.61948 16.0007 11.1897 15.4631 12.4667 14.4727C12.5057 14.4906 12.5463 14.5049 12.588 14.5153C12.7937 14.5294 12.9861 14.6223 13.125 14.7747C13.2638 14.9271 13.3385 15.1272 13.3334 15.3333C13.3334 15.5101 13.4036 15.6797 13.5286 15.8047C13.6537 15.9298 13.8232 16 14 16C14.1768 16 14.3464 15.9298 14.4714 15.8047C14.5965 15.6797 14.6667 15.5101 14.6667 15.3333C14.6813 14.9449 14.5833 14.5605 14.3844 14.2265C14.1856 13.8925 13.8945 13.623 13.546 13.4507C14.4283 12.4321 15.0123 11.1898 15.2336 9.86054C15.455 8.53131 15.3051 7.16676 14.8006 5.91725C14.296 4.66774 13.4563 3.58176 12.374 2.77895C11.2918 1.97614 10.0089 1.48766 8.6667 1.36733ZM2.00004 8.66667C2.00004 7.47998 2.35193 6.31994 3.01122 5.33325C3.67051 4.34655 4.60758 3.57752 5.70394 3.12339C6.80029 2.66926 8.00669 2.55044 9.17058 2.78196C10.3345 3.01347 11.4036 3.58491 12.2427 4.42403C13.0818 5.26314 13.6532 6.33224 13.8847 7.49613C14.1163 8.66001 13.9974 9.86641 13.5433 10.9628C13.0892 12.0591 12.3202 12.9962 11.3335 13.6555C10.3468 14.3148 9.18672 14.6667 8.00004 14.6667C6.40933 14.6647 4.88434 14.032 3.75954 12.9072C2.63474 11.7824 2.00198 10.2574 2.00004 8.66667Z" fill="currentColor"/>
<path d="M12.8099 5.84987e-06C12.633 5.84987e-06 12.4635 0.0702437 12.3385 0.195268C12.2134 0.320292 12.1432 0.489862 12.1432 0.666673C12.1432 0.843484 12.2134 1.01305 12.3385 1.13808C12.4635 1.2631 12.633 1.33334 12.8099 1.33334C13.0423 1.31567 13.276 1.34526 13.4967 1.42033C13.7174 1.4954 13.9207 1.61439 14.0942 1.77013C14.2676 1.92587 14.4078 2.11513 14.5062 2.3265C14.6045 2.53788 14.6591 2.76698 14.6665 3.00001C14.6665 3.17682 14.7368 3.34639 14.8618 3.47141C14.9868 3.59643 15.1564 3.66667 15.3332 3.66667C15.51 3.66667 15.6796 3.59643 15.8046 3.47141C15.9296 3.34639 15.9999 3.17682 15.9999 3.00001C15.9913 2.59234 15.9016 2.19046 15.7359 1.81789C15.5702 1.44532 15.3318 1.10954 15.0348 0.830196C14.7377 0.550848 14.388 0.333544 14.0059 0.190995C13.6239 0.0484469 13.2173 -0.0164824 12.8099 5.84987e-06Z" fill="currentColor"/>
<path d="M1.33333 3.00001C1.34076 2.76698 1.39531 2.53788 1.49368 2.3265C1.59205 2.11513 1.73221 1.92587 1.9057 1.77013C2.0792 1.61439 2.28243 1.4954 2.50316 1.42033C2.72389 1.34526 2.95753 1.31567 3.19 1.33334C3.36681 1.33334 3.53638 1.2631 3.6614 1.13808C3.78643 1.01305 3.85667 0.843484 3.85667 0.666673C3.85667 0.489862 3.78643 0.320292 3.6614 0.195268C3.53638 0.0702437 3.36681 5.84987e-06 3.19 5.84987e-06C2.78257 -0.0164824 2.37595 0.0484469 1.99392 0.190995C1.61189 0.333544 1.26212 0.550848 0.965084 0.830196C0.668045 1.10954 0.429698 1.44532 0.263987 1.81789C0.0982768 2.19046 0.00853083 2.59234 0 3.00001C0 3.17682 0.0702379 3.34639 0.195262 3.47141C0.320286 3.59643 0.489856 3.66667 0.666667 3.66667C0.843478 3.66667 1.01305 3.59643 1.13807 3.47141C1.2631 3.34639 1.33333 3.17682 1.33333 3.00001Z" fill="currentColor"/>
<path d="M8.66677 7.724V4.66667C8.66677 4.48986 8.59653 4.32029 8.47151 4.19526C8.34648 4.07024 8.17691 4 8.0001 4C7.82329 4 7.65372 4.07024 7.5287 4.19526C7.40367 4.32029 7.33344 4.48986 7.33344 4.66667V8C7.33347 8.1768 7.40374 8.34634 7.52877 8.47133L9.52877 10.4713C9.6545 10.5928 9.8229 10.66 9.9977 10.6585C10.1725 10.6569 10.3397 10.5868 10.4633 10.4632C10.5869 10.3396 10.657 10.1724 10.6586 9.9976C10.6601 9.8228 10.5929 9.6544 10.4714 9.52867L8.66677 7.724Z" fill="currentColor"/>
</g>
<defs>
<clipPath id="clip0_170_388"><rect width="16" height="16" fill="white"/></clipPath>
</defs>
</svg>
