<svg width="16" height="16" viewBox="0 0 16 16" fill="none" xmlns="http://www.w3.org/2000/svg">
<g clip-path="url(#clip0_170_391)">
<path d="M7.97193 16.0052L7.50721 15.6069C6.86655 15.0704 1.27258 10.2393 1.27258 6.70539C1.27258 3.00545 4.27199 0.00604248 7.97193 0.00604248C11.6719 0.00604248 14.6713 3.00545 14.6713 6.70539C14.6713 10.2393 9.0773 15.0704 8.4393 15.6095L7.97193 16.0052ZM7.97193 1.45464C5.0734 1.45792 2.72449 3.80682 2.72121 6.70536C2.72121 8.92542 6.16283 12.4719 7.97193 14.0951C9.78105 12.4713 13.2226 8.92273 13.2226 6.70536C13.2194 3.80682 10.8705 1.45795 7.97193 1.45464Z" fill="currentColor"/>
<path d="M7.972 9.36069C6.50537 9.36069 5.31644 8.17175 5.31644 6.70512C5.31644 5.2385 6.50537 4.04956 7.972 4.04956C9.43862 4.04956 10.6276 5.2385 10.6276 6.70512C10.6276 8.17175 9.43866 9.36069 7.972 9.36069ZM7.972 5.37731C7.23869 5.37731 6.64422 5.97178 6.64422 6.70509C6.64422 7.4384 7.23869 8.03287 7.972 8.03287C8.70531 8.03287 9.29978 7.4384 9.29978 6.70509C9.29978 5.97178 8.70534 5.37731 7.972 5.37731Z" fill="currentColor"/>
</g>
<defs>
<clipPath id="clip0_170_391"><rect width="16" height="16" fill="white"/></clipPath>
</defs>
</svg>
