<svg width="36" height="36" viewBox="0 0 36 36" fill="none" xmlns="http://www.w3.org/2000/svg">
<g clip-path="url(#clip0_726_9580)">
<path d="M18.0002 9C16.8135 9 15.6534 9.35189 14.6667 10.0112C13.68 10.6705 12.911 11.6075 12.4569 12.7039C12.0028 13.8003 11.8839 15.0067 12.1154 16.1705C12.347 17.3344 12.9184 18.4035 13.7575 19.2426C14.5966 20.0818 15.6657 20.6532 16.8296 20.8847C17.9935 21.1162 19.1999 20.9974 20.2963 20.5433C21.3926 20.0892 22.3297 19.3201 22.989 18.3334C23.6483 17.3467 24.0002 16.1867 24.0002 15C24.0002 13.4087 23.368 11.8826 22.2428 10.7574C21.1176 9.63214 19.5915 9 18.0002 9ZM18.0002 18C17.4068 18 16.8268 17.8241 16.3334 17.4944C15.8401 17.1648 15.4556 16.6962 15.2285 16.148C15.0015 15.5999 14.942 14.9967 15.0578 14.4147C15.1736 13.8328 15.4593 13.2982 15.8788 12.8787C16.2984 12.4591 16.8329 12.1734 17.4149 12.0576C17.9968 11.9419 18.6 12.0013 19.1482 12.2284C19.6964 12.4554 20.1649 12.8399 20.4946 13.3333C20.8242 13.8266 21.0002 14.4067 21.0002 15C21.0002 15.7956 20.6841 16.5587 20.1215 17.1213C19.5589 17.6839 18.7958 18 18.0002 18Z" fill="#E94560"/>
<path d="M17.9999 36.0004C16.7368 36.0069 15.4906 35.7106 14.3655 35.1365C13.2404 34.5623 12.2693 33.727 11.5334 32.7004C5.81689 24.8149 2.91739 18.8869 2.91739 15.0799C2.91739 11.0798 4.50643 7.24349 7.33495 4.41497C10.1635 1.58645 13.9998 -0.00259399 17.9999 -0.00259399C22 -0.00259399 25.8363 1.58645 28.6648 4.41497C31.4933 7.24349 33.0824 11.0798 33.0824 15.0799C33.0824 18.8869 30.1829 24.8149 24.4664 32.7004C23.7305 33.727 22.7594 34.5623 21.6343 35.1365C20.5092 35.7106 19.263 36.0069 17.9999 36.0004ZM17.9999 3.27191C14.8685 3.27548 11.8664 4.521 9.6522 6.73521C7.43798 8.94943 6.19246 11.9515 6.18889 15.0829C6.18889 18.0979 9.02839 23.6734 14.1824 30.7819C14.6199 31.3846 15.1939 31.8751 15.8575 32.2133C16.521 32.5515 17.2551 32.7279 17.9999 32.7279C18.7446 32.7279 19.4788 32.5515 20.1423 32.2133C20.8058 31.8751 21.3798 31.3846 21.8174 30.7819C26.9714 23.6734 29.8109 18.0979 29.8109 15.0829C29.8073 11.9515 28.5618 8.94943 26.3476 6.73521C24.1334 4.521 21.1313 3.27548 17.9999 3.27191Z" fill="#E94560"/>
</g>
<defs>
<clipPath id="clip0_726_9580">
<rect width="36" height="36" fill="white"/>
</clipPath>
</defs>
</svg>
